<?xml version="1.0" encoding="UTF-8"?>
<svg width="760px" height="796px" viewBox="0 0 760 796" version="1.1" xmlns="http://www.w3.org/2000/svg" xmlns:xlink="http://www.w3.org/1999/xlink">
    <!-- Generator: Sketch 52.6 (67491) - http://www.bohemiancoding.com/sketch -->
    <title>Group 2</title>
    <desc>Created with Sketch.</desc>
    <g id="Page-1" stroke="none" stroke-width="1" fill="none" fill-rule="evenodd">
        <g id="Group-2" transform="translate(-16.000000, 0.000000)">
            <g id="Group" transform="translate(118.000000, 0.000000)" fill="#1D5472">
                <path d="M398.79975,386.777633 L428.127991,335.858428 L485.52442,325.059232 C463.371,353.236814 433.346528,374.926109 398.79975,386.777633 Z M306.494546,394.154624 L267.571758,326.58853 L305.514268,268.115876 L370.869313,268.115876 L408.810755,326.58853 L369.897578,394.151416 C359.585442,395.918129 348.9946,396.849611 338.191257,396.849611 C327.387914,396.853889 316.801343,395.922407 306.494546,394.154624 Z M190.625304,324.758719 L248.242777,335.837039 L277.587035,386.777633 C242.919591,374.884401 212.803285,353.081745 190.625304,324.758719 Z M262.987519,37.1801208 L327.317437,76.5985776 L327.317437,133.993237 L289.492389,161.515253 L273.695824,173.011723 L213.19625,159.409527 L200.765518,81.5949972 C218.138216,62.8295488 239.282527,47.6199855 262.987519,37.1801208 Z M381.547718,26.4686184 L337.740628,57.9133372 L288.904009,27.9893609 C304.617282,23.6955628 321.138911,21.3887826 338.191257,21.3887826 C353.112193,21.3887826 367.628417,23.1522877 381.547718,26.4686184 Z M472.314165,78.1107646 L462.86164,159.484388 L439.887051,164.64764 L402.692029,173.011723 L349.066145,133.993237 L349.066145,76.0980801 L407.021055,34.4979674 C431.80243,44.3325297 453.997496,59.3121635 472.314165,78.1107646 Z M525.6229,207.467983 L483.784908,164.439099 L491.180771,100.757208 C512.579228,130.973141 525.275852,167.768263 525.6229,207.467983 Z M307.478027,246.727093 L288.615692,188.589174 L337.995842,152.662436 L387.374924,188.593452 L368.512589,246.727093 L307.478027,246.727093 Z M182.762794,104.287426 L192.393648,164.581335 L150.772427,206.627404 C151.268973,168.784231 162.986388,133.600753 182.762794,104.287426 Z M287.989937,255.871867 L250.015392,314.393715 L174.11115,299.806565 C163.236262,280.151344 155.787007,258.34548 152.557857,235.201748 L207.218479,179.983397 L267.78853,193.606982 L281.249728,235.10122 L287.989937,255.871867 Z M426.388479,314.423659 L388.396848,255.871867 L408.598255,193.606982 L456.613705,182.807786 L469.106372,180.000508 L523.695448,236.141785 C520.378735,259.084462 512.903851,280.698897 502.058863,300.190494 L426.388479,314.423659 Z M518.781246,314.001231 C532.805196,289.868268 542.144529,262.689542 545.548805,233.714158 C545.560551,233.623256 545.569094,233.531284 545.581908,233.439312 C546.507726,225.460227 547,217.347461 547,209.121336 C547,154.805592 526.210212,105.264893 492.189881,68.0473423 C491.647418,67.2869711 491.009917,66.5939746 490.283785,65.9961581 C468.184825,42.4567334 440.721034,24.0206723 409.857239,12.6921036 C409.30303,12.4407854 408.727464,12.2322448 408.139084,12.0814538 C386.261167,4.27027044 362.718486,0 338.191257,0 C310.836386,0 284.695649,5.30548752 260.731172,14.9261619 C260.080857,15.1229387 259.455102,15.381743 258.849637,15.6993664 C229.384713,27.8642365 203.288825,46.5965323 182.382643,70.0610962 C181.698157,70.6674682 181.089488,71.3476315 180.576925,72.0994472 C148.70402,108.828265 129.382514,156.757318 129.382514,209.121336 C129.382514,216.971019 129.833142,224.720175 130.67994,232.348484 C130.688483,232.444734 130.701297,232.536705 130.713043,232.628677 C132.264615,246.472567 135.172345,259.90793 139.297413,272.803227 L27.1282389,385.140322 C22.9572537,389.317551 22.9572537,396.08924 27.1282389,400.266469 C29.2147993,402.355084 31.9463354,403.399926 34.6789393,403.399926 C37.4104755,403.399926 40.1430794,402.355084 42.228572,400.266469 L147.669283,294.672188 C150.605844,301.201114 153.868097,307.559999 157.434685,313.713552 C157.759308,314.448257 158.172562,315.138045 158.652023,315.7765 C185.122722,360.296181 227.619572,394.184569 278.116684,409.406965 L202.892657,484.740396 C198.725943,488.917626 198.725943,495.689314 202.892657,499.866543 C204.978149,501.955158 207.715024,503 210.446561,503 C213.179164,503 215.910701,501.955158 217.997261,499.866543 L302.552079,415.180867 C314.140284,417.186065 326.044571,418.242671 338.191257,418.242671 C414.254606,418.242671 480.940181,377.290639 517.446445,316.25347 C517.980365,315.559404 518.430994,314.807588 518.781246,314.001231 Z" id="Fill-1"></path>
                <path d="M146.802928,385.119462 L3.1226501,528.804469 C-1.04088337,532.968015 -1.04088337,539.717524 3.1226501,543.881071 C5.20441684,545.959646 7.93213884,547 10.6587949,547 C13.3865169,547 16.1142389,545.959646 18.1960057,543.876807 L161.880548,400.19713 C166.039817,396.032518 166.039817,389.283009 161.880548,385.119462 C157.715948,380.960179 150.966462,380.960179 146.802928,385.119462" id="Fill-4"></path>
                <path d="M177,513 C174.1081,513 171.2723,514.176529 169.2274,516.221711 C167.1814,518.265794 166,521.10046 166,524.004398 C166,526.895142 167.177,529.721012 169.2274,531.769492 C171.2723,533.826769 174.1081,535 177,535 C179.8963,535 182.7321,533.826769 184.777,531.769492 C186.823,529.72541 188,526.895142 188,524.004398 C188,521.10046 186.8274,518.265794 184.777,516.221711 C182.7321,514.176529 179.8963,513 177,513" id="Fill-6"></path>
            </g>
            <text id="Pollaza" font-family="Raleway-Bold, Raleway" font-size="224" font-weight="bold" fill="#1A1A1A">
                <tspan x="0" y="793">Pollaza</tspan>
            </text>
        </g>
    </g>
</svg>