<?xml version="1.0" encoding="UTF-8"?>
<svg width="1111px" height="263px" viewBox="0 0 1111 263" version="1.1" xmlns="http://www.w3.org/2000/svg" xmlns:xlink="http://www.w3.org/1999/xlink">
    <!-- Generator: Sketch 52.6 (67491) - http://www.bohemiancoding.com/sketch -->
    <title>Group 2</title>
    <desc>Created with Sketch.</desc>
    <g id="Page-1" stroke="none" stroke-width="1" fill="none" fill-rule="evenodd">
        <g id="Group-2">
            <g id="Group" fill="#1D5472">
                <path d="M191.875215,186.083871 L205.950527,161.585963 L233.496423,156.390326 C222.864476,169.946936 208.455026,180.381945 191.875215,186.083871 Z M147.575776,189.63304 L128.895815,157.126092 L147.105318,128.994119 L178.470741,128.994119 L196.679732,157.126092 L178.004383,189.631496 C173.055346,190.481486 167.972552,190.929634 162.787773,190.929634 C157.602995,190.931692 152.522251,190.483544 147.575776,189.63304 Z M91.9674023,156.245746 L119.619382,161.575673 L133.702382,186.083871 C117.064661,180.361879 102.611137,169.872331 91.9674023,156.245746 Z M126.695731,17.8878513 L157.569171,36.852596 L157.569171,64.465931 L139.416041,77.7071395 L131.834898,83.2382447 L102.79973,76.6940469 L96.8339294,39.25644 C105.171496,30.2281328 115.319148,22.9106093 126.695731,17.8878513 Z M183.595559,12.7344049 L162.571506,27.8628779 L139.133664,13.4660543 C146.674833,11.4002509 154.603952,10.2904282 162.787773,10.2904282 C169.948681,10.2904282 176.915359,11.138874 183.595559,12.7344049 Z M227.156511,37.5801293 L222.620022,76.7300634 L211.593977,79.2141727 L193.743211,83.2382447 L168.006888,64.465931 L168.006888,36.6118 L195.820812,16.5974316 C207.713977,21.3289705 218.365911,28.5358719 227.156511,37.5801293 Z M252.740627,99.81561 L232.661591,79.1138411 L236.211039,48.4756346 C246.480662,63.0129226 252.57407,80.7155462 252.740627,99.81561 Z M148.047772,118.703691 L138.995294,90.7327635 L162.693989,73.4479313 L186.392172,90.7348216 L177.339694,118.703691 L148.047772,118.703691 Z M88.1939989,50.1740698 L92.8160721,79.1822724 L72.8410694,99.4111962 C73.0793734,81.2043415 78.7028361,64.2771017 88.1939989,50.1740698 Z M138.694979,123.103364 L120.470102,151.259004 L84.0418714,144.240932 C78.8227568,134.784543 75.2476839,124.293452 73.6979389,113.158694 L99.9308568,86.5924097 L128.999849,93.146898 L135.460194,113.110329 L138.694979,123.103364 Z M205.115694,151.273411 L186.882617,123.103364 L196.577748,93.146898 L219.621491,87.9512608 L225.617016,86.6006421 L251.815597,113.610958 C250.223829,124.648986 246.636456,135.047978 241.431691,144.425645 L205.115694,151.273411 Z M249.457156,151.070175 C256.18758,139.459485 260.669745,126.383438 262.303537,112.442994 C262.309175,112.39926 262.313274,112.355011 262.319424,112.310762 C262.763746,108.471918 263,104.568759 263,100.61106 C263,74.4790322 253.022492,50.6443424 236.695335,32.7384828 C236.434994,32.3726581 236.129042,32.0392482 235.780555,31.7516307 C225.174744,20.4265 211.994225,11.5566654 197.181964,6.10634009 C196.915986,5.98542756 196.639758,5.88509589 196.357381,5.81254837 C185.857654,2.05448399 174.558968,0 162.787773,0 C149.659527,0 137.113973,2.55254072 125.612857,7.18117532 C125.300755,7.27584726 125.000441,7.40036144 124.709864,7.5531743 C110.568954,13.4058553 98.0449238,22.4182124 88.0115553,33.7073266 C87.6830545,33.9990603 87.3909399,34.3262959 87.1449486,34.6880044 C71.8483922,52.3587277 62.5755467,75.4180338 62.5755467,100.61106 C62.5755467,104.387647 62.791814,108.115869 63.198212,111.785951 C63.2023119,111.832258 63.2084617,111.876506 63.214099,111.920755 C63.958735,118.581235 65.3542229,125.045167 67.3339401,131.249266 L13.5013154,185.296139 C11.4995615,187.30586 11.4995615,190.563809 13.5013154,192.57353 C14.5027048,193.57839 15.8136332,194.081078 17.1250741,194.081078 C18.4360026,194.081078 19.7474435,193.57839 20.7483204,192.57353 L71.3517973,141.770715 C72.7611222,144.911868 74.3267541,147.971212 76.0384433,150.931769 C76.1942377,151.285245 76.3925682,151.617111 76.6226725,151.92428 C89.3265836,173.343292 109.721821,189.647447 133.956573,196.971144 L97.8547931,233.215061 C95.8550891,235.224782 95.8550891,238.482732 97.8547931,240.492452 C98.85567,241.497313 100.169161,242 101.480089,242 C102.79153,242 104.102459,241.497313 105.103848,240.492452 L145.683694,199.749045 C151.245146,200.713773 156.958293,201.22212 162.787773,201.22212 C199.292364,201.22212 231.296339,181.519552 248.816554,152.153757 C249.072795,151.819832 249.289062,151.458124 249.457156,151.070175 Z" id="Fill-1"></path>
                <path d="M70.2874627,185.493561 L1.49508702,254.2882 C-0.49836234,256.281656 -0.49836234,259.513239 1.49508702,261.506694 C2.4918117,262.501891 3.79781193,263 5.10330181,263 C6.40930204,263 7.71530227,262.501891 8.71202695,261.504653 L77.506444,192.712565 C79.497852,190.718599 79.497852,187.487017 77.506444,185.493561 C75.5124843,183.502146 72.2809121,183.502146 70.2874627,185.493561" id="Fill-4"></path>
                <path d="M85.5,246 C84.05405,246 82.63615,246.588265 81.6137,247.610856 C80.5907,248.632897 80,250.05023 80,251.502199 C80,252.947571 80.5885,254.360506 81.6137,255.384746 C82.63615,256.413385 84.05405,257 85.5,257 C86.94815,257 88.36605,256.413385 89.3885,255.384746 C90.4115,254.362705 91,252.947571 91,251.502199 C91,250.05023 90.4137,248.632897 89.3885,247.610856 C88.36605,246.588265 86.94815,246 85.5,246" id="Fill-6"></path>
            </g>
            <text id="Pollaza" font-family="Raleway-Bold, Raleway" font-size="224" font-weight="bold" fill="#1A1A1A">
                <tspan x="335" y="211">Pollaza</tspan>
            </text>
        </g>
    </g>
</svg>